<?xml version="1.0" encoding="iso-8859-1"?>
<!-- Generator: Adobe Illustrator 16.0.0, SVG Export Plug-In . SVG Version: 6.00 Build 0)  -->
<!DOCTYPE svg PUBLIC "-//W3C//DTD SVG 1.1//EN" "http://www.w3.org/Graphics/SVG/1.1/DTD/svg11.dtd">
<svg version="1.1" id="&#x5716;&#x5C64;_1" xmlns="http://www.w3.org/2000/svg" xmlns:xlink="http://www.w3.org/1999/xlink" x="0px"
	 y="0px" width="93.475px" height="87.285px" viewBox="0 0 93.475 87.285" style="enable-background:new 0 0 93.475 87.285;"
	 xml:space="preserve">
<polygon style="fill:#00693D;" points="56.935,0 54.985,23.222 72.347,33.208 72.347,47.746 21.137,47.746 21.137,33.208 
	38.498,23.222 36.541,0 25.264,0 27.211,18.013 9.847,28.649 9.847,54.905 25.264,62.289 68.218,62.289 83.627,54.905 
	83.627,28.649 66.263,18.013 68.218,0 "/>
<g>
	<defs>
		<rect id="SVGID_1_" width="93.475" height="87.285"/>
	</defs>
	<clipPath id="SVGID_2_">
		<use xlink:href="#SVGID_1_"  style="overflow:visible;"/>
	</clipPath>
	<path style="clip-path:url(#SVGID_2_);fill:#00693D;" d="M4.604,73.289h1.301c0.854,0,1.437,0.188,1.747,0.563
		c0.308,0.379,0.472,0.842,0.472,1.38c0,0.558-0.184,1.013-0.538,1.368c-0.361,0.358-0.982,0.533-1.859,0.533H4.604V73.289z
		 M0,69.789v17.217h4.604v-6.387h2.504c1.845,0,3.215-0.493,4.115-1.469c0.901-0.986,1.35-2.341,1.35-4.078
		c0-1.691-0.41-2.989-1.237-3.911c-0.824-0.917-2.066-1.372-3.723-1.372H0z"/>
	<path style="clip-path:url(#SVGID_2_);fill:#00693D;" d="M21.363,74.25l1.633,6.183h-3.251L21.363,74.25z M18.901,69.789
		l-5.542,17.217h4.666l0.731-2.855h5.185l0.746,2.855h4.781l-5.549-17.217H18.901z"/>
	<polygon style="clip-path:url(#SVGID_2_);fill:#00693D;" points="40.396,69.789 40.396,75.811 35.412,75.811 35.412,69.789 
		30.836,69.789 30.836,87.006 35.412,87.006 35.412,80.041 40.396,80.041 40.396,87.006 44.996,87.006 44.996,69.789 	"/>
	<path style="clip-path:url(#SVGID_2_);fill:#00693D;" d="M50.354,70.185c-0.885,0.442-1.543,1.065-1.986,1.852
		c-0.441,0.784-0.657,1.615-0.657,2.502c0,1.354,0.428,2.452,1.284,3.327c0.86,0.861,2.285,1.563,4.29,2.084
		c1.224,0.311,2.001,0.637,2.336,0.994c0.336,0.352,0.507,0.754,0.507,1.191c0,0.473-0.174,0.887-0.533,1.24
		c-0.354,0.357-0.845,0.525-1.497,0.525c-0.876,0-1.541-0.338-2.009-1.039c-0.296-0.429-0.486-1.063-0.582-1.875l-4.354,0.309
		c0.129,1.743,0.678,3.174,1.648,4.298c0.961,1.13,2.705,1.693,5.218,1.693c1.433,0,2.622-0.242,3.564-0.717
		c0.931-0.487,1.671-1.189,2.198-2.115c0.519-0.931,0.785-1.95,0.785-3.05c0-0.938-0.2-1.791-0.594-2.541
		c-0.391-0.764-1.023-1.394-1.884-1.905c-0.866-0.519-2.299-1.021-4.29-1.519c-0.81-0.198-1.323-0.408-1.537-0.635
		c-0.215-0.213-0.327-0.464-0.327-0.738c0-0.376,0.132-0.693,0.403-0.955c0.264-0.26,0.662-0.393,1.193-0.393
		c0.641,0,1.15,0.174,1.512,0.529c0.367,0.354,0.6,0.913,0.713,1.683l4.325-0.288c-0.191-1.787-0.786-3.084-1.772-3.91
		c-0.995-0.818-2.434-1.228-4.317-1.228C52.446,69.505,51.23,69.73,50.354,70.185"/>
	<path style="clip-path:url(#SVGID_2_);fill:#00693D;" d="M64.175,71.795c-1.304,1.531-1.955,3.713-1.955,6.563
		c0,2.135,0.375,3.883,1.114,5.25c0.737,1.365,1.623,2.32,2.631,2.865c1.023,0.545,2.332,0.813,3.943,0.813
		c1.321,0,2.417-0.225,3.268-0.67c0.867-0.443,1.581-1.104,2.156-1.983c0.581-0.874,1.01-1.964,1.271-3.276l-4.009-1.414
		c-0.2,1.095-0.523,1.926-0.974,2.501c-0.442,0.57-1.102,0.854-1.979,0.854c-0.897,0-1.6-0.351-2.094-1.057
		c-0.496-0.707-0.748-2.01-0.748-3.917c0-1.532,0.208-2.664,0.629-3.378c0.552-0.965,1.348-1.448,2.375-1.448
		c0.462,0,0.881,0.108,1.249,0.325c0.365,0.223,0.682,0.538,0.939,0.938c0.156,0.248,0.302,0.623,0.441,1.152l4.033-1.041
		c-0.521-1.824-1.313-3.172-2.38-4.049c-1.071-0.88-2.532-1.317-4.389-1.317C67.311,69.505,65.474,70.271,64.175,71.795"/>
	<path style="clip-path:url(#SVGID_2_);fill:#00693D;" d="M83.563,82.164c-0.552-0.76-0.833-2.008-0.833-3.738
		c0-1.746,0.281-2.999,0.833-3.755c0.563-0.76,1.301-1.134,2.216-1.134c0.958,0,1.717,0.371,2.279,1.117
		c0.554,0.744,0.837,1.926,0.837,3.537c0,1.929-0.271,3.254-0.802,3.996c-0.544,0.739-1.293,1.109-2.272,1.109
		C84.872,83.297,84.111,82.918,83.563,82.164 M80.173,71.851c-1.348,1.565-2.019,3.75-2.019,6.558c0,2.01,0.341,3.685,1.021,5.021
		c0.672,1.334,1.563,2.315,2.654,2.927c1.091,0.62,2.475,0.93,4.143,0.93c1.643,0,3.01-0.353,4.108-1.071
		c1.101-0.717,1.937-1.718,2.521-3.002c0.59-1.284,0.873-2.94,0.873-4.948c0-2.767-0.665-4.922-1.996-6.454
		c-1.33-1.533-3.229-2.306-5.692-2.306C83.389,69.505,81.518,70.288,80.173,71.851"/>
</g>
</svg>
