<svg id="Layer_1" data-name="Layer 1" xmlns="http://www.w3.org/2000/svg" viewBox="0 0 831.84 316.04"><defs><style>.cls-1{fill:#009ea4;}.cls-1,.cls-3,.cls-4{fill-rule:evenodd;}.cls-2,.cls-3{fill:#003761;}.cls-4,.cls-5{fill:#1d1d1b;}</style></defs><title>navbar-logo-medicop</title><path class="cls-1" d="M771.89,226.14H741.21V111h30.68ZM739.94,256.2a46,46,0,0,0,62.62-42.92V119.76c0-25.29-20.73-42-46-42s-46,16.69-46,42V312.86H740Z" transform="translate(-1.92 -1.28)"/><rect class="cls-2" x="426.59" y="79.92" width="30.68" height="174.38"/><path class="cls-2" d="M1.92,255.47H36.7v-218H71.38v218H106.1v-218h34.59v218h34.75V32A30.61,30.61,0,0,0,144.76,1.28H1.92V255.47" transform="translate(-1.92 -1.28)"/><path class="cls-3" d="M199.31,217.18c0,25.29,20.73,42,46,42s46-16.69,46-42V191.3H260.67V226H230V179.13h61.36V123.65a46,46,0,1,0-92,0v93.52M230,110.8h30.68v37.65H230Z" transform="translate(-1.92 -1.28)"/><path class="cls-2" d="M574.53,179.21H543.84V226H513.16V110.8h30.68v46.61h30.68V123.65a46,46,0,1,0-92,0v93.52c0,25.29,20.73,42,46,42s46-16.69,46-42v-38" transform="translate(-1.92 -1.28)"/><path class="cls-1" d="M627.35,110.8H658V226H627.35ZM596.67,217.18c0,25.29,20.73,42,46,42s46-16.69,46-42V123.65a46,46,0,1,0-92,0Z" transform="translate(-1.92 -1.28)"/><rect class="cls-2" x="426.59" y="11.18" width="30.68" height="50.99"/><path class="cls-3" d="M344.74,110.8h30.68V226H344.74Zm31.95-30.06a46,46,0,0,0-62.63,42.92v93.52c0,25.29,20.73,42,46,42s46-16.69,46-42V12.45H376.67Z" transform="translate(-1.92 -1.28)"/><path class="cls-4" d="M800.13,70.19A16.81,16.81,0,1,0,816.92,53.4a16.8,16.8,0,0,0-16.79,16.79m2.28,0a14.54,14.54,0,1,1,14.51,14.52A14.51,14.51,0,0,1,802.4,70.24Zm19.39,9.6h3.14l-5.82-8.58c2.59-.43,4.84-2,4.84-5.35s-1.91-5.35-6.24-5.35h-7.65V79.83h2.55V71.25h3.53Zm-9.17-17h4.2c2.34,0,4.59.3,4.59,3s-2,3.1-4.59,3.1h-4.2Z" transform="translate(-1.92 -1.28)"/><path class="cls-5" d="M19.79,299.24H7.12v10.59H21.24V313H2.92V283.65h17.6v3.18H7.12v9.28H19.79Z" transform="translate(-1.92 -1.28)"/><path class="cls-5" d="M57.8,317.32c-4.4-1-8.7-2.22-12.48-3.4a6.82,6.82,0,0,0-2-.44c-7.74-.26-14.36-5.4-14.36-14.86s6.38-15.46,15.18-15.46,14.6,6.19,14.6,14.85c0,7.54-3.87,12.37-9.28,14.07v.17c3.24.74,6.77,1.44,9.53,1.87ZM54.32,298.2c0-5.88-3.39-11.94-10.3-11.94-7.11,0-10.59,5.92-10.54,12.29s3.77,11.85,10.35,11.85S54.32,304.91,54.32,298.2Z" transform="translate(-1.92 -1.28)"/><path class="cls-5" d="M72.65,283.65V301c0,6.58,3.24,9.37,7.59,9.37,4.84,0,7.93-2.87,7.93-9.37V283.65h4.26v17.12c0,9-5.27,12.72-12.33,12.72-6.67,0-11.7-3.44-11.7-12.55V283.65Z" transform="translate(-1.92 -1.28)"/><path class="cls-5" d="M108.14,283.65V313h-4.21V283.65Z" transform="translate(-1.92 -1.28)"/><path class="cls-5" d="M119.7,284a54,54,0,0,1,8.08-.57c4.16,0,7.2.87,9.14,2.44a7.55,7.55,0,0,1,2.85,6.14,8.17,8.17,0,0,1-2.51,6.27c-2.22,2.13-5.85,3.22-10,3.22a16,16,0,0,1-3.38-.26V313H119.7Zm4.21,14.16a15.61,15.61,0,0,0,3.48.3c5.08,0,8.17-2.22,8.17-6.27,0-3.88-3-5.75-7.69-5.75a19.48,19.48,0,0,0-4,.31Z" transform="translate(-1.92 -1.28)"/><path class="cls-5" d="M177.09,300.11c-.24-4.1-.53-9-.48-12.68h-.15c-1.11,3.44-2.47,7.1-4.11,11.15l-5.75,14.25h-3.19l-5.27-14c-1.55-4.14-2.85-7.93-3.77-11.41h-.1c-.1,3.66-.34,8.58-.63,13L152.77,313h-4L151,283.65h5.37l5.56,14.2c1.35,3.62,2.47,6.84,3.29,9.89h.15a103.68,103.68,0,0,1,3.43-9.89l5.8-14.2H180L182,313h-4.11Z" transform="translate(-1.92 -1.28)"/><path class="cls-5" d="M209.59,299.24H196.92v10.59H211V313H192.71V283.65h17.6v3.18H196.92v9.28h12.67Z" transform="translate(-1.92 -1.28)"/><path class="cls-5" d="M220.71,313V283.65h4.59l10.44,14.86A80.93,80.93,0,0,1,241.6,308l.1,0a117.74,117.74,0,0,1-.48-12.07V283.65h4V313h-4.26l-10.35-14.9a91,91,0,0,1-6.09-9.8l-.15,0c.24,3.7.34,7.23.34,12.11V313Z" transform="translate(-1.92 -1.28)"/><path class="cls-5" d="M262.93,286.87H253v-3.22h24.13v3.22h-10V313h-4.26Z" transform="translate(-1.92 -1.28)"/><path class="cls-5" d="M298.85,308.39a16.14,16.14,0,0,0,7.54,1.92c4.3,0,6.82-2,6.82-5,0-2.74-1.74-4.31-6.14-5.84-5.32-1.7-8.61-4.18-8.61-8.32,0-4.57,4.21-8,10.54-8a16.14,16.14,0,0,1,7.2,1.44l-1.16,3.09a14.1,14.1,0,0,0-6.19-1.39c-4.45,0-6.14,2.4-6.14,4.4,0,2.74,2,4.09,6.48,5.66,5.51,1.92,8.32,4.31,8.32,8.63,0,4.53-3.72,8.45-11.41,8.45a18.31,18.31,0,0,1-8.32-1.87Z" transform="translate(-1.92 -1.28)"/><path class="cls-5" d="M327.48,284a54,54,0,0,1,8.08-.57c4.16,0,7.2.87,9.14,2.44a7.55,7.55,0,0,1,2.85,6.14,8.17,8.17,0,0,1-2.51,6.27c-2.22,2.13-5.85,3.22-10,3.22a16,16,0,0,1-3.38-.26V313h-4.21Zm4.21,14.16a15.61,15.61,0,0,0,3.48.3c5.08,0,8.17-2.22,8.17-6.27,0-3.88-3-5.75-7.69-5.75a19.48,19.48,0,0,0-4,.31Z" transform="translate(-1.92 -1.28)"/><path class="cls-5" d="M374.29,299.24H361.62v10.59h14.12V313H357.41V283.65H375v3.18H361.62v9.28h12.67Z" transform="translate(-1.92 -1.28)"/><path class="cls-5" d="M408.19,312.05a22.91,22.91,0,0,1-8.61,1.39c-9.19,0-16.1-5.23-16.1-14.86,0-9.19,6.92-15.42,17-15.42a19.13,19.13,0,0,1,7.74,1.31l-1,3.09a16.76,16.76,0,0,0-6.58-1.22c-7.64,0-12.72,4.4-12.72,12.11,0,7.19,4.59,11.81,12.52,11.81a18.46,18.46,0,0,0,6.87-1.22Z" transform="translate(-1.92 -1.28)"/><path class="cls-5" d="M421.87,283.65V313h-4.21V283.65Z" transform="translate(-1.92 -1.28)"/><path class="cls-5" d="M438.7,303.77,435.31,313H431L442,283.65h5.08L458.24,313h-4.5l-3.48-9.24Zm10.69-3-3.19-8.45c-.72-1.92-1.21-3.66-1.69-5.36h-.1c-.48,1.74-1,3.53-1.64,5.32l-3.19,8.49Z" transform="translate(-1.92 -1.28)"/><path class="cls-5" d="M467.23,283.65h4.21v26.18h13.93V313H467.23Z" transform="translate(-1.92 -1.28)"/><path class="cls-5" d="M498.47,283.65V313h-4.21V283.65Z" transform="translate(-1.92 -1.28)"/><path class="cls-5" d="M509.44,308.39a16.14,16.14,0,0,0,7.54,1.92c4.3,0,6.82-2,6.82-5,0-2.74-1.74-4.31-6.14-5.84-5.32-1.7-8.61-4.18-8.61-8.32,0-4.57,4.21-8,10.54-8a16.14,16.14,0,0,1,7.21,1.44l-1.16,3.09a14.11,14.11,0,0,0-6.19-1.39c-4.45,0-6.14,2.4-6.14,4.4,0,2.74,2,4.09,6.48,5.66,5.51,1.92,8.32,4.31,8.32,8.63,0,4.53-3.72,8.45-11.41,8.45a18.31,18.31,0,0,1-8.32-1.87Z" transform="translate(-1.92 -1.28)"/><path class="cls-5" d="M544.26,286.87h-9.91v-3.22h24.13v3.22h-10V313h-4.26Z" transform="translate(-1.92 -1.28)"/></svg>